<mxfile host="app.diagrams.net" modified="2023-11-27T03:52:15.768Z" agent="Mozilla/5.0 (Windows NT 10.0; Win64; x64) AppleWebKit/537.36 (KHTML, like Gecko) Chrome/119.0.0.0 Safari/537.36" etag="myPoVn_3yDDe4i-4R6Mj" version="22.1.4" type="github">
  <diagram name="Page-1" id="c4acf3e9-155e-7222-9cf6-157b1a14988f">
    <mxGraphModel dx="2284" dy="790" grid="1" gridSize="10" guides="1" tooltips="1" connect="1" arrows="1" fold="1" page="1" pageScale="1" pageWidth="850" pageHeight="1100" background="none" math="0" shadow="0">
      <root>
        <mxCell id="0" />
        <mxCell id="1" parent="0" />
        <mxCell id="6rVkEMSzZNJv9Jw--LsQ-2" value="User" style="shape=umlActor;verticalLabelPosition=bottom;verticalAlign=top;html=1;outlineConnect=0;" vertex="1" parent="1">
          <mxGeometry x="-100" y="450" width="30" height="60" as="geometry" />
        </mxCell>
        <mxCell id="6rVkEMSzZNJv9Jw--LsQ-4" value="" style="swimlane;startSize=0;" vertex="1" parent="1">
          <mxGeometry x="50" y="240" width="500" height="550" as="geometry" />
        </mxCell>
        <mxCell id="6rVkEMSzZNJv9Jw--LsQ-5" value="Storefront, Client-side" style="text;html=1;strokeColor=none;fillColor=none;align=center;verticalAlign=middle;whiteSpace=wrap;rounded=0;" vertex="1" parent="6rVkEMSzZNJv9Jw--LsQ-4">
          <mxGeometry x="220" y="10" width="60" height="30" as="geometry" />
        </mxCell>
        <mxCell id="6rVkEMSzZNJv9Jw--LsQ-6" value="Purchase Selection" style="ellipse;whiteSpace=wrap;html=1;" vertex="1" parent="6rVkEMSzZNJv9Jw--LsQ-4">
          <mxGeometry x="40" y="100" width="120" height="30" as="geometry" />
        </mxCell>
        <mxCell id="6rVkEMSzZNJv9Jw--LsQ-7" value="Support Request" style="ellipse;whiteSpace=wrap;html=1;" vertex="1" parent="6rVkEMSzZNJv9Jw--LsQ-4">
          <mxGeometry x="40" y="350" width="120" height="30" as="geometry" />
        </mxCell>
        <mxCell id="6rVkEMSzZNJv9Jw--LsQ-10" value="" style="endArrow=none;html=1;rounded=0;entryX=0;entryY=0.5;entryDx=0;entryDy=0;" edge="1" parent="1" target="6rVkEMSzZNJv9Jw--LsQ-6">
          <mxGeometry width="50" height="50" relative="1" as="geometry">
            <mxPoint y="360" as="sourcePoint" />
            <mxPoint x="-10" y="500" as="targetPoint" />
          </mxGeometry>
        </mxCell>
        <mxCell id="6rVkEMSzZNJv9Jw--LsQ-12" value="" style="endArrow=none;html=1;rounded=0;" edge="1" parent="1">
          <mxGeometry width="50" height="50" relative="1" as="geometry">
            <mxPoint y="360" as="sourcePoint" />
            <mxPoint y="600" as="targetPoint" />
          </mxGeometry>
        </mxCell>
        <mxCell id="6rVkEMSzZNJv9Jw--LsQ-14" value="" style="endArrow=none;html=1;rounded=0;entryX=0;entryY=0.5;entryDx=0;entryDy=0;" edge="1" parent="1" target="6rVkEMSzZNJv9Jw--LsQ-7">
          <mxGeometry width="50" height="50" relative="1" as="geometry">
            <mxPoint y="600" as="sourcePoint" />
            <mxPoint x="450" y="440" as="targetPoint" />
          </mxGeometry>
        </mxCell>
        <mxCell id="6rVkEMSzZNJv9Jw--LsQ-15" value="" style="endArrow=none;html=1;rounded=0;" edge="1" parent="1" source="6rVkEMSzZNJv9Jw--LsQ-2">
          <mxGeometry width="50" height="50" relative="1" as="geometry">
            <mxPoint x="400" y="490" as="sourcePoint" />
            <mxPoint y="480" as="targetPoint" />
          </mxGeometry>
        </mxCell>
      </root>
    </mxGraphModel>
  </diagram>
</mxfile>
